<?xml version="1.0" encoding="utf-8"?>
<!-- Generator: Adobe Illustrator 17.1.0, SVG Export Plug-In . SVG Version: 6.00 Build 0)  -->
<!DOCTYPE svg PUBLIC "-//W3C//DTD SVG 1.1//EN" "http://www.w3.org/Graphics/SVG/1.1/DTD/svg11.dtd">
<svg version="1.1" id="Layer_1" xmlns="http://www.w3.org/2000/svg" xmlns:xlink="http://www.w3.org/1999/xlink" x="0px" y="0px"
	 viewBox="0 771 291.9 245" enable-background="new 0 771 291.9 245" xml:space="preserve">
<g>
	<path fill="#F1F2F2" d="M252.2,869.9c0.1,13-2.9,26-9.4,37.8c-3,5.4-6.5,10.4-10.6,14.8c-13.4,14.7-32.2,23.7-52.8,26.2
		c-5,0.6-10.1,0.9-15.3,0.7l10.5-23.3l20.3-45.1v0l5.3-11.8l19.1-42.4l-29.5-19.7L140,937.9l-28.5-34.8L96,884.3l-16.9,13.4
		l-3.3,2.6c-10.9-16.6-16.5-35.5-15.7-53.9c0.5-11.6,3.5-23.1,9.3-33.7c22.9-41.8,80.2-54.3,128.1-28.1
		C231.8,803.4,251.9,837,252.2,869.9z"/>
	<path fill="#F1F2F2" d="M174.5,926.2c0.1,8,1.8,15.6,4.8,22.6c7,16.2,21.1,28.7,38.3,33.4c5,1.4,10.2,2.1,15.6,2.1
		c32.4,0,58.7-26.3,58.7-58.7c0-25.8-16.7-47.7-39.8-55.6c-5.9-2-12.3-3.1-18.9-3.1c-10,0-19.4,2.5-27.6,6.9
		c-3.9,2.1-7.5,4.5-10.8,7.4v0L174.5,926.2z"/>
	<path fill="#F1F2F2" d="M96,884.3l-16.9,13.4c5.4-10.7,13.2-20,22.5-27.3c13.8-10.8,31.1-17.2,50-17.2c5.2,0,10.2,0.5,15.1,1.4
		L140,937.9l-28.5-34.8L96,884.3z"/>
	<path fill="#F1F2F2" d="M174.5,926.2L164,949.5l-17.4,38.6l-49.7-48.5l-24.4-23.8c-1.4,6-2.2,12.3-2.2,18.8
		c0,7.1,0.9,13.9,2.6,20.5c9.1,35,40.9,60.9,78.8,60.9c27.1,0,51.2-13.3,66-33.7c9.7-13.4,15.4-29.8,15.4-47.6c0-4.1-0.3-8.1-0.9-12
		c-2.9-19.3-12.5-36.5-26.5-48.8c-1.8-1.6-3.6-3-5.5-4.4l-5.3,11.8v0L174.5,926.2z"/>
	<path fill="#F1F2F2" d="M82.1,900.7L99,887.3l15.4,18.8c0-0.4,0-0.8,0-1.1c0-11.7-6.6-25.6-12.8-34.6c-9.3-13.5-24.3-22.6-41.5-24
		c-1.4-0.1-2.9-0.2-4.4-0.2C25,846.3,0,871.2,0,902c0,30.8,24.9,55.7,55.7,55.7c6,0,11.7-0.9,17.1-2.7c9.3-3,17.6-8.4,24-15.4
		l-21.4-20.8l-7.2-7.1l10.6-8.4L82.1,900.7z"/>
</g>
<g id="d8cHxj.tif">
	
		<image overflow="visible" width="1200" height="953" id="Layer_0_1_" xlink:href="4EC16BEA4C8F1424.png"  transform="matrix(0.2874 0 0 0.2874 -688.3134 777.1674)">
	</image>
</g>
<line fill="none" x1="79.1" y1="897.7" x2="75.8" y2="900.4"/>
<line fill="none" x1="194.8" y1="881.1" x2="174.5" y2="926.2"/>
</svg>
