<?xml version="1.0" encoding="utf-8"?>
<!-- Generator: Adobe Illustrator 17.1.0, SVG Export Plug-In . SVG Version: 6.00 Build 0)  -->
<!DOCTYPE svg PUBLIC "-//W3C//DTD SVG 1.1//EN" "http://www.w3.org/Graphics/SVG/1.1/DTD/svg11.dtd">
<svg version="1.1" id="Layer_1" xmlns="http://www.w3.org/2000/svg" xmlns:xlink="http://www.w3.org/1999/xlink" x="0px" y="0px"
	 viewBox="0 0 1728 2592" enable-background="new 0 0 1728 2592" xml:space="preserve">
<path fill="#F1F2F2" d="M1728,752.5c0,54.9-44.5,99.4-99.4,99.4H99.4C44.5,852,0,807.5,0,752.5l0,0c0-54.9,44.5-99.4,99.4-99.4
	h1529.1C1683.5,653.1,1728,697.6,1728,752.5L1728,752.5z"/>
<path fill="#F1F2F2" d="M1728,1296c0,54.9-44.5,99.4-99.4,99.4H99.4c-54.9,0-99.4-44.5-99.4-99.4l0,0c0-54.9,44.5-99.4,99.4-99.4
	h1529.1C1683.5,1196.6,1728,1241.1,1728,1296L1728,1296z"/>
<path fill="#F1F2F2" d="M1728,1839.5c0,54.9-44.5,99.4-99.4,99.4H99.4c-54.9,0-99.4-44.5-99.4-99.4l0,0c0-54.9,44.5-99.4,99.4-99.4
	h1529.1C1683.5,1740,1728,1784.5,1728,1839.5L1728,1839.5z"/>
</svg>
