<?xml version="1.0" encoding="utf-8"?>
<!-- Generator: Adobe Illustrator 17.1.0, SVG Export Plug-In . SVG Version: 6.00 Build 0)  -->
<!DOCTYPE svg PUBLIC "-//W3C//DTD SVG 1.1//EN" "http://www.w3.org/Graphics/SVG/1.1/DTD/svg11.dtd">
<svg version="1.1" id="Layer_1" xmlns="http://www.w3.org/2000/svg" xmlns:xlink="http://www.w3.org/1999/xlink" x="0px" y="0px"
	 viewBox="0 0 271.704 132.725" enable-background="new 0 0 271.704 132.725" xml:space="preserve">
<path fill="#F1F2F2" d="M271.704,15.635c0,8.635-7,15.635-15.635,15.635H15.635C7,31.27,0,24.27,0,15.635l0,0C0,7,7,0,15.635,0
	h240.434C264.704,0,271.704,7,271.704,15.635L271.704,15.635z"/>
<path fill="#F1F2F2" d="M271.704,62.888c0,8.635-7,15.635-15.635,15.635H15.635C7,78.523,0,71.523,0,62.888l0,0
	c0-8.635,7-15.635,15.635-15.635h240.434C264.704,47.253,271.704,54.253,271.704,62.888L271.704,62.888z"/>
<path fill="#F1F2F2" d="M271.704,117.09c0,8.635-7,15.635-15.635,15.635H15.635C7,132.725,0,125.725,0,117.09l0,0
	c0-8.635,7-15.635,15.635-15.635h240.434C264.704,101.455,271.704,108.455,271.704,117.09L271.704,117.09z"/>
</svg>
