<?xml version="1.0" encoding="utf-8"?>
<!-- Generator: Adobe Illustrator 17.1.0, SVG Export Plug-In . SVG Version: 6.00 Build 0)  -->
<!DOCTYPE svg PUBLIC "-//W3C//DTD SVG 1.1//EN" "http://www.w3.org/Graphics/SVG/1.1/DTD/svg11.dtd">
<svg version="1.1" id="Layer_1" xmlns="http://www.w3.org/2000/svg" xmlns:xlink="http://www.w3.org/1999/xlink" x="0px" y="0px"
	 viewBox="0 0 546.487 108.229" enable-background="new 0 0 546.487 108.229" xml:space="preserve">
<g>
	
		<ellipse transform="matrix(0.877 0.4806 -0.4806 0.877 27.4394 -28.2848)" fill="#F1F2F2" cx="68.958" cy="39.445" rx="43.647" ry="38.086"/>
	<circle fill="#F1F2F2" cx="103.035" cy="68.302" r="25.948"/>
	<circle fill="#F1F2F2" cx="66.996" cy="72.282" r="35.941"/>
	<circle fill="#F1F2F2" cx="24.625" cy="57.887" r="24.62"/>
</g>
<g>
	<path fill="#F1F2F2" d="M152.864,32.523v1.772c2.757-3.401,5.621-5.899,8.594-7.493c2.972-1.593,6.338-2.39,10.098-2.39
		c4.512,0,8.665,1.164,12.461,3.491c3.795,2.328,6.794,5.729,8.997,10.205c2.202,4.477,3.303,9.775,3.303,15.898
		c0,4.512-0.636,8.656-1.907,12.434c-1.271,3.778-3.017,6.947-5.237,9.508c-2.221,2.56-4.843,4.529-7.869,5.908
		c-3.026,1.378-6.276,2.067-9.749,2.067c-4.189,0-7.708-0.842-10.554-2.524s-5.559-4.153-8.137-7.412v22.021
		c0,6.445-2.346,9.668-7.036,9.668c-2.758,0-4.584-0.832-5.479-2.498c-0.896-1.664-1.343-4.091-1.343-7.277V32.63
		c0-2.793,0.608-4.879,1.826-6.258c1.217-1.378,2.882-2.067,4.995-2.067c2.076,0,3.768,0.707,5.076,2.122
		C152.21,27.841,152.864,29.873,152.864,32.523z M181.599,53.846c0-3.867-0.591-7.188-1.772-9.964
		c-1.182-2.774-2.82-4.905-4.915-6.391c-2.095-1.486-4.414-2.229-6.956-2.229c-4.047,0-7.458,1.594-10.232,4.78
		c-2.775,3.188-4.163,7.878-4.163,14.072c0,5.837,1.378,10.375,4.136,13.615c2.757,3.241,6.177,4.861,10.259,4.861
		c2.435,0,4.69-0.707,6.768-2.121c2.076-1.415,3.741-3.536,4.995-6.365C180.972,61.277,181.599,57.857,181.599,53.846z"/>
	<path fill="#F1F2F2" d="M258.572,54.115c0,4.369-0.681,8.397-2.041,12.085c-1.361,3.688-3.33,6.857-5.908,9.507
		c-2.578,2.65-5.658,4.682-9.238,6.096c-3.581,1.415-7.609,2.122-12.085,2.122c-4.44,0-8.433-0.717-11.978-2.148
		s-6.616-3.482-9.211-6.149c-2.597-2.668-4.565-5.819-5.908-9.453c-1.343-3.635-2.014-7.654-2.014-12.059
		c0-4.439,0.68-8.504,2.041-12.192c1.36-3.688,3.312-6.839,5.854-9.453c2.542-2.613,5.621-4.628,9.238-6.042
		c3.616-1.415,7.608-2.122,11.978-2.122c4.439,0,8.468,0.717,12.085,2.148c3.616,1.433,6.714,3.474,9.292,6.123
		c2.578,2.65,4.539,5.801,5.881,9.453C257.9,45.682,258.572,49.71,258.572,54.115z M243.855,54.115
		c0-5.979-1.316-10.635-3.948-13.965s-6.168-4.995-10.608-4.995c-2.865,0-5.39,0.743-7.573,2.229
		c-2.185,1.485-3.867,3.679-5.049,6.579s-1.772,6.284-1.772,10.151c0,3.832,0.582,7.18,1.746,10.044
		c1.163,2.865,2.828,5.058,4.995,6.579c2.166,1.522,4.717,2.283,7.654,2.283c4.439,0,7.976-1.674,10.608-5.021
		C242.539,64.651,243.855,60.023,243.855,54.115z"/>
	<path fill="#F1F2F2" d="M277.055,32.523v1.772c2.757-3.401,5.621-5.899,8.594-7.493c2.972-1.593,6.338-2.39,10.098-2.39
		c4.512,0,8.665,1.164,12.461,3.491c3.795,2.328,6.794,5.729,8.997,10.205c2.201,4.477,3.303,9.775,3.303,15.898
		c0,4.512-0.636,8.656-1.906,12.434c-1.271,3.778-3.018,6.947-5.237,9.508c-2.221,2.56-4.843,4.529-7.868,5.908
		c-3.026,1.378-6.276,2.067-9.749,2.067c-4.189,0-7.708-0.842-10.554-2.524c-2.848-1.683-5.56-4.153-8.138-7.412v22.021
		c0,6.445-2.346,9.668-7.036,9.668c-2.758,0-4.584-0.832-5.479-2.498c-0.896-1.664-1.343-4.091-1.343-7.277V32.63
		c0-2.793,0.608-4.879,1.826-6.258c1.217-1.378,2.882-2.067,4.996-2.067c2.076,0,3.769,0.707,5.076,2.122
		C276.402,27.841,277.055,29.873,277.055,32.523z M305.79,53.846c0-3.867-0.591-7.188-1.772-9.964
		c-1.182-2.774-2.819-4.905-4.915-6.391c-2.094-1.486-4.413-2.229-6.955-2.229c-4.047,0-7.457,1.594-10.232,4.78
		c-2.774,3.188-4.162,7.878-4.162,14.072c0,5.837,1.378,10.375,4.136,13.615c2.757,3.241,6.177,4.861,10.259,4.861
		c2.435,0,4.69-0.707,6.768-2.121c2.076-1.415,3.741-3.536,4.995-6.365C305.163,61.277,305.79,57.857,305.79,53.846z"/>
	<path fill="#F1F2F2" d="M380.452,65.77c0,1.826-0.546,3.778-1.639,5.854c-1.092,2.077-2.757,4.055-4.994,5.936
		c-2.238,1.879-5.059,3.393-8.46,4.538c-3.402,1.146-7.233,1.719-11.494,1.719c-9.06,0-16.132-2.641-21.216-7.923
		c-5.085-5.281-7.627-12.361-7.627-21.242c0-6.016,1.163-11.333,3.491-15.952c2.327-4.619,5.693-8.19,10.098-10.716
		c4.404-2.523,9.668-3.786,15.791-3.786c3.795,0,7.278,0.556,10.446,1.665c3.17,1.11,5.855,2.543,8.057,4.297
		c2.203,1.755,3.886,3.625,5.049,5.613c1.164,1.986,1.746,3.84,1.746,5.559c0,1.755-0.653,3.241-1.961,4.458
		c-1.307,1.218-2.892,1.826-4.753,1.826c-1.218,0-2.229-0.313-3.034-0.94c-0.807-0.626-1.711-1.638-2.713-3.034
		c-1.791-2.721-3.661-4.762-5.613-6.123c-1.951-1.36-4.431-2.041-7.438-2.041c-4.333,0-7.824,1.692-10.474,5.075
		c-2.65,3.385-3.975,8.013-3.975,13.885c0,2.758,0.34,5.291,1.021,7.6c0.68,2.311,1.665,4.279,2.954,5.908
		c1.289,1.63,2.847,2.865,4.673,3.707c1.826,0.841,3.831,1.262,6.016,1.262c2.936,0,5.452-0.68,7.546-2.041
		c2.096-1.36,3.948-3.438,5.56-6.23c0.895-1.646,1.861-2.936,2.9-3.867c1.038-0.931,2.31-1.396,3.813-1.396
		c1.79,0,3.276,0.681,4.458,2.041C379.862,62.781,380.452,64.231,380.452,65.77z"/>
	<path fill="#F1F2F2" d="M443.729,54.115c0,4.369-0.681,8.397-2.041,12.085c-1.361,3.688-3.33,6.857-5.908,9.507
		c-2.578,2.65-5.658,4.682-9.238,6.096c-3.581,1.415-7.609,2.122-12.085,2.122c-4.44,0-8.433-0.717-11.978-2.148
		s-6.615-3.482-9.212-6.149c-2.596-2.668-4.564-5.819-5.908-9.453c-1.342-3.635-2.014-7.654-2.014-12.059
		c0-4.439,0.68-8.504,2.041-12.192c1.36-3.688,3.312-6.839,5.854-9.453c2.542-2.613,5.621-4.628,9.238-6.042
		c3.616-1.415,7.608-2.122,11.978-2.122c4.439,0,8.468,0.717,12.085,2.148c3.616,1.433,6.714,3.474,9.292,6.123
		c2.578,2.65,4.539,5.801,5.881,9.453C443.058,45.682,443.729,49.71,443.729,54.115z M429.012,54.115
		c0-5.979-1.315-10.635-3.948-13.965c-2.631-3.33-6.168-4.995-10.607-4.995c-2.865,0-5.39,0.743-7.573,2.229
		c-2.185,1.485-3.867,3.679-5.049,6.579s-1.772,6.284-1.772,10.151c0,3.832,0.582,7.18,1.746,10.044
		c1.163,2.865,2.828,5.058,4.994,6.579c2.167,1.522,4.718,2.283,7.654,2.283c4.439,0,7.977-1.674,10.607-5.021
		C427.697,64.651,429.012,60.023,429.012,54.115z"/>
	<path fill="#F1F2F2" d="M463.232,62.762v12.246c0,2.973-0.698,5.201-2.095,6.687c-1.396,1.486-3.169,2.229-5.317,2.229
		c-2.113,0-3.85-0.752-5.21-2.256c-1.361-1.504-2.041-3.724-2.041-6.66v-40.82c0-6.588,2.381-9.883,7.144-9.883
		c2.435,0,4.189,0.771,5.264,2.31c1.074,1.54,1.665,3.813,1.772,6.821c1.754-3.008,3.554-5.281,5.397-6.821
		c1.845-1.539,4.306-2.31,7.386-2.31c3.079,0,6.069,0.771,8.97,2.31c2.9,1.54,4.351,3.581,4.351,6.123
		c0,1.791-0.618,3.268-1.853,4.432c-1.236,1.163-2.57,1.745-4.002,1.745c-0.537,0-1.835-0.331-3.895-0.993
		c-2.059-0.663-3.876-0.994-5.451-0.994c-2.148,0-3.903,0.564-5.264,1.691c-1.361,1.129-2.417,2.803-3.169,5.022
		c-0.752,2.221-1.271,4.86-1.558,7.923C463.374,54.624,463.232,58.358,463.232,62.762z"/>
	<path fill="#F1F2F2" d="M507.976,32.415v1.772c2.578-3.401,5.397-5.899,8.46-7.493c3.061-1.593,6.579-2.39,10.554-2.39
		c3.867,0,7.322,0.842,10.366,2.524c3.043,1.684,5.317,4.064,6.821,7.144c0.967,1.791,1.593,3.725,1.88,5.801
		c0.286,2.077,0.43,4.727,0.43,7.949v27.285c0,2.937-0.672,5.156-2.014,6.66c-1.344,1.504-3.089,2.256-5.237,2.256
		c-2.185,0-3.957-0.771-5.317-2.31c-1.361-1.539-2.041-3.741-2.041-6.606V50.57c0-4.834-0.672-8.531-2.014-11.092
		c-1.344-2.56-4.021-3.84-8.03-3.84c-2.614,0-4.995,0.779-7.144,2.336c-2.148,1.559-3.725,3.698-4.727,6.419
		c-0.717,2.185-1.074,6.267-1.074,12.246v18.369c0,2.973-0.689,5.201-2.068,6.687c-1.378,1.486-3.16,2.229-5.344,2.229
		c-2.113,0-3.85-0.771-5.21-2.31c-1.361-1.539-2.041-3.741-2.041-6.606V32.63c0-2.793,0.608-4.879,1.826-6.258
		c1.217-1.378,2.882-2.067,4.995-2.067c1.289,0,2.452,0.305,3.491,0.913c1.038,0.609,1.871,1.522,2.497,2.739
		C507.662,29.175,507.976,30.661,507.976,32.415z"/>
</g>
</svg>
