<?xml version="1.0" encoding="utf-8"?>
<!-- Generator: Adobe Illustrator 17.1.0, SVG Export Plug-In . SVG Version: 6.00 Build 0)  -->
<!DOCTYPE svg PUBLIC "-//W3C//DTD SVG 1.1//EN" "http://www.w3.org/Graphics/SVG/1.1/DTD/svg11.dtd">
<svg version="1.1" id="Layer_1" xmlns="http://www.w3.org/2000/svg" xmlns:xlink="http://www.w3.org/1999/xlink" x="0px" y="0px"
	 viewBox="0 771 291.9 245" enable-background="new 0 771 291.9 245" xml:space="preserve">
<g>
	<path fill="#F1F2F2" d="M63.2,872.9c1,3.4,2.1,6.8,3.5,10.2L63.2,872.9z M110.7,840.1L94.6,862c0.5,0.5,0.9,0.9,1.4,1.4l16.3-22.2
		L110.7,840.1z M110.7,840.1L94.6,862l-7.9,10.7l1.6,1.1l7.7-10.5l16.3-22.2L110.7,840.1z M139.8,877.8l2.2-7l-5.9,4.4l-6-4.3l2.3,7
		l-6,4.4l7.4,0l2.3,7l2.2-7l7.4,0L139.8,877.8z M158.9,891.5l2.2-7l-5.9,4.4l-6-4.3l2.3,7l-6,4.4l7.4,0l2.3,7l2.2-7l7.4,0
		L158.9,891.5z M110.7,840.1L94.6,862l-7.9,10.7l1.6,1.1l7.7-10.5l16.3-22.2L110.7,840.1z M139.8,877.8l2.2-7l-5.9,4.4l-6-4.3l2.3,7
		l-6,4.4l7.4,0l2.3,7l2.2-7l7.4,0L139.8,877.8z M158.9,891.5l2.2-7l-5.9,4.4l-6-4.3l2.3,7l-6,4.4l7.4,0l2.3,7l2.2-7l7.4,0
		L158.9,891.5z M178.1,905.3l-0.2-0.1l2.2-7l-5.9,4.3l-6-4.3l2.3,7l-6,4.4l7.4,0l2.3,7l2.2-7h0.2l7.2,0L178.1,905.3z M110.7,840.1
		L94.6,862l-7.9,10.7l1.6,1.1l7.7-10.5l16.3-22.2L110.7,840.1z M139.8,877.8l2.2-7l-5.9,4.4l-6-4.3l2.3,7l-6,4.4l7.4,0l2.3,7l2.2-7
		l7.4,0L139.8,877.8z M158.9,891.5l2.2-7l-5.9,4.4l-6-4.3l2.3,7l-6,4.4l7.4,0l2.3,7l2.2-7l7.4,0L158.9,891.5z M178.1,905.3l-0.2-0.1
		l2.2-7l-5.9,4.3l-6-4.3l2.3,7l-6,4.4l7.4,0l2.3,7l2.2-7h0.2l7.2,0L178.1,905.3z M220.8,919.3l-16.9,23c1.2-0.5,2.4-1,3.6-1.6h0
		l14.9-20.2L220.8,919.3z M110.7,840.1L94.6,862l-7.9,10.7l1.6,1.1l7.7-10.5l16.3-22.2L110.7,840.1z M139.8,877.8l2.2-7l-5.9,4.4
		l-6-4.3l2.3,7l-6,4.4l7.4,0l2.3,7l2.2-7l7.4,0L139.8,877.8z M158.9,891.5l2.2-7l-5.9,4.4l-6-4.3l2.3,7l-6,4.4l7.4,0l2.3,7l2.2-7
		l7.4,0L158.9,891.5z M178.1,905.3l-0.2-0.1l2.2-7l-5.9,4.3l-6-4.3l2.3,7l-6,4.4l7.4,0l2.3,7l2.2-7h0.2l7.2,0L178.1,905.3z
		 M220.8,919.3l-16.9,23c1.2-0.5,2.4-1,3.6-1.6h0l14.9-20.2L220.8,919.3z M110.7,840.1L94.6,862l-7.9,10.7l1.6,1.1l7.7-10.5
		l16.3-22.2L110.7,840.1z M139.8,877.8l2.2-7l-5.9,4.4l-6-4.3l2.3,7l-6,4.4l7.4,0l2.3,7l2.2-7l7.4,0L139.8,877.8z M158.9,891.5
		l2.2-7l-5.9,4.4l-6-4.3l2.3,7l-6,4.4l7.4,0l2.3,7l2.2-7l7.4,0L158.9,891.5z M178.1,905.3l-0.2-0.1l2.2-7l-5.9,4.3l-6-4.3l2.3,7
		l-6,4.4l7.4,0l2.3,7l2.2-7h0.2l7.2,0L178.1,905.3z M220.8,919.3l-16.9,23c1.2-0.5,2.4-1,3.6-1.6h0l14.9-20.2L220.8,919.3z
		 M110.7,840.1L94.6,862l-7.9,10.7l1.6,1.1l7.7-10.5l16.3-22.2L110.7,840.1z M139.8,877.8l2.2-7l-5.9,4.4l-6-4.3l2.3,7l-6,4.4l7.4,0
		l2.3,7l2.2-7l7.4,0L139.8,877.8z M158.9,891.5l2.2-7l-5.9,4.4l-6-4.3l2.3,7l-6,4.4l7.4,0l2.3,7l2.2-7l7.4,0L158.9,891.5z
		 M178.1,905.3l-0.2-0.1l2.2-7l-5.9,4.3l-6-4.3l2.3,7l-6,4.4l7.4,0l2.3,7l2.2-7h0.2l7.2,0L178.1,905.3z M220.8,919.3l-16.9,23
		c1.2-0.5,2.4-1,3.6-1.6h0l14.9-20.2L220.8,919.3z M220.8,919.3l-16.9,23c1.2-0.5,2.4-1,3.6-1.6h0l14.9-20.2L220.8,919.3z
		 M178.1,905.3l-0.2-0.1l2.2-7l-5.9,4.3l-6-4.3l2.3,7l-6,4.4l7.4,0l2.3,7l2.2-7h0.2l7.2,0L178.1,905.3z M158.9,891.5l2.2-7l-5.9,4.4
		l-6-4.3l2.3,7l-6,4.4l7.4,0l2.3,7l2.2-7l7.4,0L158.9,891.5z M139.8,877.8l2.2-7l-5.9,4.4l-6-4.3l2.3,7l-6,4.4l7.4,0l2.3,7l2.2-7
		l7.4,0L139.8,877.8z M110.7,840.1L94.6,862l-7.9,10.7l1.6,1.1l7.7-10.5l16.3-22.2L110.7,840.1z M220.8,919.3l-16.9,23
		c1.2-0.5,2.4-1,3.6-1.6h0l14.9-20.2L220.8,919.3z M178.1,905.3l-0.2-0.1l2.2-7l-5.9,4.3l-6-4.3l2.3,7l-6,4.4l7.4,0l2.3,7l2.2-7h0.2
		l7.2,0L178.1,905.3z M158.9,891.5l2.2-7l-5.9,4.4l-6-4.3l2.3,7l-6,4.4l7.4,0l2.3,7l2.2-7l7.4,0L158.9,891.5z M139.8,877.8l2.2-7
		l-5.9,4.4l-6-4.3l2.3,7l-6,4.4l7.4,0l2.3,7l2.2-7l7.4,0L139.8,877.8z M110.7,840.1L94.6,862l-7.9,10.7l1.6,1.1l7.7-10.5l16.3-22.2
		L110.7,840.1z M220.8,919.3l-16.9,23c1.2-0.5,2.4-1,3.6-1.6h0l14.9-20.2L220.8,919.3z M178.1,905.3l-0.2-0.1l2.2-7l-5.9,4.3l-6-4.3
		l2.3,7l-6,4.4l7.4,0l2.3,7l2.2-7h0.2l7.2,0L178.1,905.3z M158.9,891.5l2.2-7l-5.9,4.4l-6-4.3l2.3,7l-6,4.4l7.4,0l2.3,7l2.2-7l7.4,0
		L158.9,891.5z M139.8,877.8l2.2-7l-5.9,4.4l-6-4.3l2.3,7l-6,4.4l7.4,0l2.3,7l2.2-7l7.4,0L139.8,877.8z M110.7,840.1L94.6,862
		l-7.9,10.7l1.6,1.1l7.7-10.5l16.3-22.2L110.7,840.1z M107.8,921.9l-30-21.4l-3.5-2.5c0.9,1.4,1.8,2.8,2.7,4.2
		c7.1,10.3,16.2,19.6,27.3,27.2c3.3,2.3,6.8,4.5,10.4,6.5c9.1,5,18.5,8.6,28,10.8L107.8,921.9z M220.8,919.3l-16.9,23
		c1.2-0.5,2.4-1,3.6-1.6h0l14.9-20.2L220.8,919.3z M178.1,905.3l-0.2-0.1l2.2-7l-5.9,4.3l-6-4.3l2.3,7l-6,4.4l7.4,0l2.3,7l2.2-7h0.2
		l7.2,0L178.1,905.3z M158.9,891.5l2.2-7l-5.9,4.4l-6-4.3l2.3,7l-6,4.4l7.4,0l2.3,7l2.2-7l7.4,0L158.9,891.5z M139.8,877.8l2.2-7
		l-5.9,4.4l-6-4.3l2.3,7l-6,4.4l7.4,0l2.3,7l2.2-7l7.4,0L139.8,877.8z M110.7,840.1L94.6,862l-7.9,10.7l1.6,1.1l7.7-10.5l16.3-22.2
		L110.7,840.1z M110.7,840.1L94.6,862l-7.9,10.7l1.6,1.1l7.7-10.5l16.3-22.2L110.7,840.1z M110.7,840.1L94.6,862l-7.9,10.7l1.6,1.1
		l7.7-10.5l16.3-22.2L110.7,840.1z M184.4,860.1l-65.8-47.3l-0.8,1.1c-5.1,7.6-11.7,7.2-16.4,5.4c-1.8-0.7-3-1.5-3-1.5l-1.2-0.8
		l-3.3,6.3l0.7,0.7c1.4,1.4,0.8,2.4,0.6,2.7c-0.4,0.5-1,1-2.2,0.5c-0.4-0.1-0.7-0.3-0.7-0.3l-1-0.7l-4.6,6.5l1,0.8
		c0.8,0.6,1.2,1.2,1.2,1.6v0.1c0,0.4-0.3,0.7-0.3,0.7l-0.2,0.1l-0.1,0.2c-0.4,0.7-0.8,1.1-1.9,0.7c-0.4-0.1-0.7-0.3-0.7-0.3l-1-0.7
		l-5.3,6.5l1.4,0.7c0.6,0.3,1.3,0.8,1.4,1.3c0.1,0.4-0.2,0.9-0.3,1c-0.8,0.7-2,0.4-2.7,0.2c-0.2-0.1-0.3-0.1-0.3-0.1l-1-0.5l-3,4.5
		l-1.4,2.1l1.1,0.7c0.6,0.4,1,0.8,1.1,1.2c0,0,0,0.1,0,0.1c0,0.6-0.5,1.1-0.5,1.1l-0.1,0.1c-0.4,0.5-1,1-2.2,0.6
		c-0.3-0.1-0.6-0.3-0.6-0.3l-1-0.7l-4.9,6.4l1.3,0.7c0.7,0.3,1,0.7,1.1,1.2c0.1,0.6-0.3,1.3-0.4,1.5c-0.2,0.2-0.8,1-2.4,0.4
		c-0.3-0.1-0.5-0.2-0.5-0.2l-1-0.6l-2.6,3.5c-1.5-7-2.1-14.1-1.8-21.1c0.5-11.6,3.5-23.1,9.3-33.7c22.9-41.8,80.2-54.3,128.1-28.1
		c34.3,18.8,54.4,52.4,54.6,85.3c0.1,13-2.9,26-9.4,37.8c-0.5,0.8-0.9,1.7-1.4,2.5c0.5-3.4,2.1-6,2.2-6.2l0.7-1l-32.4-23.3l-7.4-5.3
		L184.4,860.1z"/>
	<path fill="#F1F2F2" d="M183.9,909.5l-7.2,0c0.4-1.4,0.9-2.8,1.4-4.2L183.9,909.5z"/>
	<polygon fill="#F1F2F2" points="207.5,940.7 198.3,953.1 196.8,951.9 203.9,942.3 203.9,942.3 220.8,919.3 222.4,920.4 
		207.5,940.7 	"/>
	<path fill="#F1F2F2" d="M292,925.6c0,32.4-26.3,58.7-58.7,58.7c-5.4,0-10.6-0.7-15.6-2.1c-6.3-1.8-12.3-4.5-17.5-8.2
		c2.1-0.2,4.1,0.2,5.7,0.8c1.9,0.7,3,1.5,3,1.5l1.1,0.8l4.5-6.4l-1.1-0.7c-1.3-0.9-0.8-2.2-0.6-2.6c0.2-0.4,0.7-1.4,2.6-0.7
		c0.4,0.1,0.7,0.3,0.7,0.3l1.1,0.6l4.1-6.1l-0.9-0.7c-1.1-0.9-0.7-2.4-0.5-2.9c0.3-0.3,1-0.9,2.4-0.4c0.2,0.1,0.4,0.2,0.4,0.2l1,0.6
		l4.5-6.4l-1.2-0.7c-0.8-0.4-0.8-0.8-0.9-1c-0.1-0.5,0.2-1.2,0.4-1.5c0.7-0.8,1.5-1,2.3-0.7c0.3,0.1,0.5,0.2,0.5,0.2l1.1,0.8
		l2.3-3.5c0.2-1.7,0.4-3.5,0.5-5.3c0-0.1,0-0.2,0-0.2c0-0.5,0.2-1,0.2-1.2c0.2-0.3,0.8-0.8,2.2-0.3c0.4,0.1,0.6,0.3,0.6,0.3l1.1,0.7
		l4.2-6.5l-1-0.7c-1.3-1-0.6-2.5-0.3-3c0.3-0.3,0.9-0.7,2.1-0.3c0.3,0.1,0.5,0.2,0.5,0.2l1,0.7l4.6-5.9l-1-0.8
		c-5.5-4.3-6.3-9.3-5.7-13.1c0.5-3.4,2.1-6,2.2-6.2l0.7-1l-32.4-23.3l-7.4-5.3c0.4-0.2,0.9-0.5,1.3-0.7c8.2-4.4,17.6-6.9,27.6-6.9
		c6.6,0,13,1.1,18.9,3.1C275.3,877.8,292,899.8,292,925.6z"/>
	<polygon fill="#F1F2F2" points="126.5,882.2 132.4,877.9 130.1,870.9 136.1,875.2 142,870.8 139.8,877.8 145.8,882.1 138.4,882.2 
		136.2,889.2 133.9,882.2 	"/>
	<polygon fill="#F1F2F2" points="151.5,891.5 149.2,884.6 155.2,888.9 161.1,884.5 158.9,891.5 164.8,895.8 157.5,895.8 
		155.2,902.9 152.9,895.9 145.5,895.9 	"/>
	<polygon fill="#F1F2F2" points="164.6,909.6 170.5,905.2 168.2,898.2 174.2,902.5 180.2,898.2 177.9,905.2 178.1,905.3 
		183.9,909.5 176.7,909.5 176.5,909.5 174.3,916.6 172,909.6 	"/>
	<path fill="#F1F2F2" d="M204.3,874.4l7.4,5.3c-1.9-2.1-4-4.1-6.1-6c-6.3-5.6-13.4-10.2-21.2-13.6L204.3,874.4z"/>
	<path fill="#F1F2F2" d="M227.3,904.6l-32.6-23.4l-38.8-27.9c1.2,0.1,2.5,0.2,3.7,0.3l36.7,26.3l29.5,21.2v0
		C226.3,902.2,226.8,903.4,227.3,904.6z"/>
	<path fill="#F1F2F2" d="M232.1,922.3c-1.4-2.7-1.7-5.6-1.7-8.2C231.1,916.8,231.7,919.5,232.1,922.3z"/>
	<polygon fill="#F1F2F2" points="198.3,953.1 196.8,951.9 203.9,942.3 203.9,942.3 220.8,919.3 222.4,920.4 207.5,940.7 
		207.5,940.7 	"/>
	<path fill="#F1F2F2" d="M232.7,927.6l-26.6,36.3c-2-0.5-8.4-1.4-15.2,2.4c-0.8,0.4-1.6,1-2.5,1.6l-25.7-18.4l-52.1-37.3L82.3,892
		c-0.3,0.5-0.7,1.1-1,1.7l28.8,20.6l48.9,35l29.4,21l0.6-0.4c1.1-0.9,2.2-1.5,3.3-2.1h0c7.2-3.7,13.8-1.8,13.9-1.8l0.7,0.2
		l26.1-35.5C232.9,929.6,232.8,928.6,232.7,927.6z M229.9,949.1l-1.1-0.8c0,0-0.2-0.1-0.5-0.2c-0.8-0.3-1.6-0.1-2.3,0.7
		c-0.2,0.3-0.5,0.9-0.4,1.5c0,0.1,0.1,0.5,0.9,1l1.2,0.7l-4.5,6.4l-1-0.6c0,0-0.2-0.1-0.4-0.2c-1.3-0.5-2.1,0.1-2.4,0.4
		c-0.2,0.5-0.6,2,0.5,2.9l0.9,0.7l-4.1,6.1l-1.1-0.6c0,0-0.3-0.2-0.7-0.3c-1.9-0.7-2.4,0.3-2.6,0.7c-0.2,0.4-0.7,1.7,0.6,2.6
		l1.1,0.7l-4.5,6.4l-1.1-0.8c0,0-1.2-0.9-3-1.5c-1.6-0.6-3.5-1-5.7-0.8c-3,0.2-6.3,1.6-9.6,5.2l-0.8,0.8l-0.9-0.7l-46.1-32.8
		l-34.8-24.8l-30-21.4c-0.3,0.6-0.5,1.1-0.8,1.7c-4.3,9.9-6.7,20.9-6.7,32.4c0,7.1,0.9,13.9,2.6,20.5c9.1,35,40.9,60.9,78.8,60.9
		c27.1,0,51.2-13.3,66-33.7c7.6-10.5,12.8-23,14.6-36.5L229.9,949.1z"/>
	<path fill="#F1F2F2" d="M88.2,873.9l-1.6-1.1l7.9-10.7c0.5,0.5,0.9,0.9,1.4,1.4L88.2,873.9z"/>
	<path fill="#F1F2F2" d="M107.8,921.9c-1,2.6-2.2,5.1-3.5,7.5c-6.8,12-18,21.3-31.4,25.6c-5.4,1.8-11.2,2.7-17.1,2.7
		C25,957.7,0,932.8,0,902c0-30.8,25-55.7,55.7-55.7c1.5,0,2.9,0.1,4.4,0.2c5.2,0.4,10.1,1.5,14.8,3.2l-1.4,2.1l1.1,0.7
		c0.6,0.4,1,0.8,1.1,1.2c0,0,0,0.1,0,0.1c0,0.6-0.5,1.1-0.5,1.1l-0.1,0.1c-0.4,0.5-1,1-2.2,0.6c-0.3-0.1-0.6-0.3-0.6-0.3l-1-0.7
		l-4.9,6.4l1.3,0.7c0.7,0.4,1,0.7,1.1,1.2c0.1,0.6-0.3,1.3-0.5,1.5c-0.2,0.2-0.8,1-2.4,0.4c-0.3-0.1-0.5-0.2-0.5-0.2l-1-0.6
		l-2.6,3.5l-1.8,2.4l0.9,0.8c0.8,0.7,1.6,1.4,2.2,2.2l3.5,10.2c-0.4,3.6-2.1,6.1-2.3,6.3l-0.8,1.1l10.6,7.5l3.5,2.5L107.8,921.9z"/>
	<path fill="#F1F2F2" d="M110.5,912.2c-0.1,0.7-0.3,1.4-0.4,2.1l-28.8-20.6l-6.9-4.9l0.4-0.8c0.2-0.4,4.9-9.8-3.5-17.9l-0.6-0.6
		l12.2-16.2c0.6,0.3,1.1,0.7,1.7,1l-11.3,15c7.3,7.6,4.7,16.2,3.6,18.8l5.4,3.9L110.5,912.2z"/>
</g>
<g id="d8cHxj.tif">
	
		<image overflow="visible" width="1200" height="953" id="Layer_0_1_" xlink:href="250ED7697FC4A90B.png"  transform="matrix(0.2874 0 0 0.2874 -688.3134 777.1674)">
	</image>
</g>
<g>
	<g>
		<path fill="#F1F2F2" d="M233.4,941.8c-0.4-0.3-0.6-0.9-0.6-1.4c-0.1,1.8-0.3,3.5-0.5,5.3l2.2-3.2L233.4,941.8z M204.3,874.4
			l-19.9-14.3"/>
		<path fill="#F1F2F2" d="M236.2,924.7c-1.2-1.1-2-2.4-2.6-3.8c-2.7-6.1-0.1-13.3-0.1-13.4l0.2-0.7l-8-5.7v0l-29.5-21.2l-36.7-26.3
			L119.7,825l-0.6-0.4l-0.6,0.4c-7.2,5.2-15.9,3.3-16,3.3l-0.6-0.1l-19,25.2l-12.2,16.2l0.6,0.6c8.5,8.1,3.7,17.5,3.5,17.9l-0.4,0.8
			l6.9,4.9l28.8,20.6l48.9,35l29.4,21l0.6-0.4c1.1-0.9,2.2-1.5,3.3-2.1h0c7.2-3.7,13.8-1.8,13.9-1.8l0.7,0.2l26.1-35.5l3.9-5.3
			L236.2,924.7z M232.7,927.6l-26.6,36.3c-2-0.5-8.4-1.4-15.2,2.4c-0.8,0.4-1.6,1-2.5,1.6l-25.7-18.4l-52.1-37.3L82.3,892l-5.4-3.9
			c1-2.6,3.7-11.2-3.6-18.8l11.3-15l18.1-24c2.2,0.4,9.7,1.2,16.4-3.3l36.8,26.4l38.8,27.9l32.6,23.4l4.2,3c-0.4,1.2-1,3.6-1,6.5
			c-0.1,2.5,0.3,5.5,1.7,8.2c0,0.1,0.1,0.1,0.1,0.2c0.5,1,1.2,2,2.1,3L232.7,927.6z"/>
		<polygon fill="#F1F2F2" points="112.3,841.3 96,863.4 88.2,873.9 86.7,872.7 94.6,862 110.7,840.1 		"/>
		<polygon fill="#F1F2F2" points="222.4,920.4 207.5,940.7 207.5,940.7 198.3,953.1 196.8,951.9 203.9,942.3 203.9,942.3 
			220.8,919.3 		"/>
		<g>
			<g>
				<path fill="#F1F2F2" d="M139.8,877.8l2.2-7l-5.9,4.4l-6-4.3l2.3,7l-6,4.4l7.4,0l2.3,7l2.2-7l7.4,0L139.8,877.8z"/>
				<path fill="#F1F2F2" d="M158.9,891.5l2.2-7l-5.9,4.4l-6-4.3l2.3,7l-6,4.4l7.4,0l2.3,7l2.2-7l7.4,0L158.9,891.5z"/>
				<path fill="#F1F2F2" d="M178.1,905.3l-0.2-0.1l2.2-7l-5.9,4.3l-6-4.3l2.3,7l-6,4.4l7.4,0l2.3,7l2.2-7h0.2l7.2,0L178.1,905.3z"/>
			</g>
			<g>
				<path fill="#F1F2F2" d="M139.8,877.8l2.2-7l-5.9,4.4l-6-4.3l2.3,7l-6,4.4l7.4,0l2.3,7l2.2-7l7.4,0L139.8,877.8z"/>
				<path fill="#F1F2F2" d="M158.9,891.5l2.2-7l-5.9,4.4l-6-4.3l2.3,7l-6,4.4l7.4,0l2.3,7l2.2-7l7.4,0L158.9,891.5z"/>
				<path fill="#F1F2F2" d="M178.1,905.3l-0.2-0.1l2.2-7l-5.9,4.3l-6-4.3l2.3,7l-6,4.4l7.4,0l2.3,7l2.2-7h0.2l7.2,0L178.1,905.3z"/>
			</g>
			<g>
				<path fill="#F1F2F2" d="M139.8,877.8l2.2-7l-5.9,4.4l-6-4.3l2.3,7l-6,4.4l7.4,0l2.3,7l2.2-7l7.4,0L139.8,877.8z"/>
				<path fill="#F1F2F2" d="M158.9,891.5l2.2-7l-5.9,4.4l-6-4.3l2.3,7l-6,4.4l7.4,0l2.3,7l2.2-7l7.4,0L158.9,891.5z"/>
				<path fill="#F1F2F2" d="M178.1,905.3l-0.2-0.1l2.2-7l-5.9,4.3l-6-4.3l2.3,7l-6,4.4l7.4,0l2.3,7l2.2-7h0.2l7.2,0L178.1,905.3z"/>
			</g>
		</g>
	</g>
	<g>
		<path fill="#F1F2F2" d="M236.2,924.7c-1.2-1.1-2-2.4-2.6-3.8c-2.7-6.1-0.1-13.3-0.1-13.4l0.2-0.7l-8-5.7v0l-29.5-21.2l-36.7-26.3
			L119.7,825l-0.6-0.4l-0.6,0.4c-7.2,5.2-15.9,3.3-16,3.3l-0.6-0.1l-19,25.2l-12.2,16.2l0.6,0.6c8.5,8.1,3.7,17.5,3.5,17.9l-0.4,0.8
			l6.9,4.9l28.8,20.6l48.9,35l29.4,21l0.6-0.4c1.1-0.9,2.2-1.5,3.3-2.1h0c7.2-3.7,13.8-1.8,13.9-1.8l0.7,0.2l26.1-35.5l3.9-5.3
			L236.2,924.7z M232.7,927.6l-26.6,36.3c-2-0.5-8.4-1.4-15.2,2.4c-0.8,0.4-1.6,1-2.5,1.6l-25.7-18.4l-52.1-37.3L82.3,892l-5.4-3.9
			c1-2.6,3.7-11.2-3.6-18.8l11.3-15l18.1-24c2.2,0.4,9.7,1.2,16.4-3.3l36.8,26.4l38.8,27.9l32.6,23.4l4.2,3c-0.4,1.2-1,3.6-1,6.5
			c-0.1,2.5,0.3,5.5,1.7,8.2c0,0.1,0.1,0.1,0.1,0.2c0.5,1,1.2,2,2.1,3L232.7,927.6z"/>
		<polygon fill="#F1F2F2" points="112.3,841.3 96,863.4 88.2,873.9 86.7,872.7 94.6,862 110.7,840.1 		"/>
		<polygon fill="#F1F2F2" points="222.4,920.4 207.5,940.7 207.5,940.7 198.3,953.1 196.8,951.9 203.9,942.3 203.9,942.3 
			220.8,919.3 		"/>
		<g>
			<g>
				<path fill="#F1F2F2" d="M139.8,877.8l2.2-7l-5.9,4.4l-6-4.3l2.3,7l-6,4.4l7.4,0l2.3,7l2.2-7l7.4,0L139.8,877.8z"/>
				<path fill="#F1F2F2" d="M158.9,891.5l2.2-7l-5.9,4.4l-6-4.3l2.3,7l-6,4.4l7.4,0l2.3,7l2.2-7l7.4,0L158.9,891.5z"/>
				<path fill="#F1F2F2" d="M178.1,905.3l-0.2-0.1l2.2-7l-5.9,4.3l-6-4.3l2.3,7l-6,4.4l7.4,0l2.3,7l2.2-7h0.2l7.2,0L178.1,905.3z"/>
			</g>
			<g>
				<path fill="#F1F2F2" d="M139.8,877.8l2.2-7l-5.9,4.4l-6-4.3l2.3,7l-6,4.4l7.4,0l2.3,7l2.2-7l7.4,0L139.8,877.8z"/>
				<path fill="#F1F2F2" d="M158.9,891.5l2.2-7l-5.9,4.4l-6-4.3l2.3,7l-6,4.4l7.4,0l2.3,7l2.2-7l7.4,0L158.9,891.5z"/>
				<path fill="#F1F2F2" d="M178.1,905.3l-0.2-0.1l2.2-7l-5.9,4.3l-6-4.3l2.3,7l-6,4.4l7.4,0l2.3,7l2.2-7h0.2l7.2,0L178.1,905.3z"/>
			</g>
		</g>
	</g>
</g>
</svg>
