<?xml version="1.0" encoding="utf-8"?>
<!-- Generator: Adobe Illustrator 17.1.0, SVG Export Plug-In . SVG Version: 6.00 Build 0)  -->
<!DOCTYPE svg PUBLIC "-//W3C//DTD SVG 1.1//EN" "http://www.w3.org/Graphics/SVG/1.1/DTD/svg11.dtd">
<svg version="1.1" id="Layer_1" xmlns="http://www.w3.org/2000/svg" xmlns:xlink="http://www.w3.org/1999/xlink" x="0px" y="0px"
	 viewBox="0 771 291.9 245" enable-background="new 0 771 291.9 245" xml:space="preserve">
<g>
	<path fill="#F1F2F2" d="M160.5,868.4c-0.5,0-1,0.4-1,1c0,0.5,0.4,1,1,1c0.5,0,1-0.4,1-1C161.5,868.9,161,868.4,160.5,868.4z
		 M197.5,784.7C149.7,758.4,92.3,771,69.4,812.8c-5.8,10.6-8.8,22-9.3,33.7c-0.8,19.1,5.2,38.8,16.9,55.8c2.5,3.6,5.2,7,8.2,10.4
		v-64.2c0-3.2,2.6-5.8,5.8-5.8h138.4c3.2,0,5.8,2.6,5.8,5.8v70.8c2.8-3.5,5.4-7.3,7.6-11.3c6.5-11.9,9.5-24.8,9.4-37.8
		C251.9,837,231.8,803.4,197.5,784.7z M160.5,868.4c-0.5,0-1,0.4-1,1c0,0.5,0.4,1,1,1c0.5,0,1-0.4,1-1
		C161.5,868.9,161,868.4,160.5,868.4z M160.5,868.4c-0.5,0-1,0.4-1,1c0,0.5,0.4,1,1,1c0.5,0,1-0.4,1-1
		C161.5,868.9,161,868.4,160.5,868.4z"/>
	<path fill="#F1F2F2" d="M224,855.7v87.5H209v-32.9c0-3.1-2.6-5.7-5.7-5.7h-9.5V869c0-3.3-2.7-6-6-6h-54.7c-3.3,0-6,2.7-6,6v74.1
		H97.1v-87.5H224z"/>
	<path fill="#F1F2F2" d="M186.2,876.1v28.5h-3.3c-3.1,0-5.7,2.5-5.7,5.7v34.9h-41.6v-69.1H186.2z"/>
	<path fill="#F1F2F2" d="M193.1,964.6c-1.4,0-2.5-1.1-2.5-2.5c0-1.4,1.1-2.5,2.5-2.5c1.4,0,2.5,1.1,2.5,2.5
		C195.6,963.4,194.5,964.6,193.1,964.6z"/>
	<path fill="#F1F2F2" d="M292,925.6c0,32.4-26.3,58.7-58.7,58.7c-5.4,0-10.6-0.7-15.6-2.1c-10.1-2.8-19.2-8.2-26.3-15.5h12
		c3.1,0,5.7-2.5,5.7-5.7v-6.3h20.3c0.4,0,0.8,0,1.2-0.1c0,0,0,0,0,0c2.6-0.5,4.6-2.9,4.6-5.7v-82.1c5.9,0.2,11.7,1.2,17,3.1
		C275.3,877.8,292,899.8,292,925.6z"/>
	<path fill="#F1F2F2" d="M160,954.8c-1.6,0-2.9-1.3-2.9-2.9c0-1.6,1.3-2.9,2.9-2.9c1.6,0,2.9,1.3,2.9,2.9
		C162.9,953.5,161.6,954.8,160,954.8z"/>
	<path fill="#F1F2F2" d="M160.5,870.4c-0.5,0-1-0.4-1-1c0-0.5,0.4-1,1-1c0.5,0,1,0.4,1,1C161.5,869.9,161,870.4,160.5,870.4z"/>
	<rect x="182.7" y="914.6" fill="#F1F2F2" width="20.7" height="42.6"/>
	<path fill="#F1F2F2" d="M229.3,954.8c0.4,0,0.8,0,1.2-0.1c-2.5,10.1-7,19.4-12.9,27.6c-14.8,20.4-38.8,33.7-66,33.7
		c-37.9,0-69.7-25.9-78.8-60.9c-1.7-6.5-2.6-13.4-2.6-20.5c0-11.5,2.4-22.5,6.7-32.4c2.2-5.1,5-10,8.2-14.5V949c0,0.1,0,0.2,0,0.4
		c0.2,3,2.7,5.4,5.8,5.4h36.8c1,2,3,3.4,5.4,3.4h44v2.9c0,3.1,2.5,5.7,5.7,5.7h20.5c3.1,0,5.7-2.5,5.7-5.7v-6.3H229.3z"/>
	<path fill="#F1F2F2" d="M85.2,949c0,0.1,0,0.2,0,0.4c-3.8,2.4-7.9,4.3-12.3,5.7c-5.4,1.8-11.2,2.7-17.1,2.7C25,957.7,0,932.8,0,902
		c0-30.8,25-55.7,55.7-55.7c1.5,0,2.9,0.1,4.4,0.2c9.2,0.7,17.7,3.6,25,8.2V949z"/>
</g>
</svg>
